<?xml version="1.0" standalone="no"?>
<!DOCTYPE svg PUBLIC "-//W3C//DTD SVG 1.1//EN" "http://www.w3.org/Graphics/SVG/1.1/DTD/svg11.dtd" >
<svg xmlns="http://www.w3.org/2000/svg">
<metadata></metadata>
<defs>
<font id="akzidenz_grotesk_be_boldRg" horiz-adv-x="1237" >
<font-face units-per-em="2048" ascent="1638" descent="-410" />
<missing-glyph horiz-adv-x="555" />
<glyph horiz-adv-x="0" />
<glyph unicode="&#xd;" horiz-adv-x="0" />
<glyph unicode=" "  horiz-adv-x="555" />
<glyph unicode="&#x09;" horiz-adv-x="555" />
<glyph unicode="&#xa0;" horiz-adv-x="555" />
<glyph unicode="!" horiz-adv-x="598" d="M184 0v348h328v-348h-328zM184 1014v432h328v-418l-98 -530h-138z" />
<glyph unicode="&#x22;" horiz-adv-x="811" d="M47 1397q0 64 46 100.5t106 36.5q58 0 98.5 -33.5t40.5 -93.5q0 -25 -2 -37l-109 -534h-65l-111 512q-4 18 -4 49zM473 1397q0 64 46.5 100.5t107.5 36.5q57 0 97 -33.5t40 -93.5q0 -25 -2 -37l-109 -534h-63l-113 512q-4 18 -4 49z" />
<glyph unicode="#" horiz-adv-x="1366" d="M86 381v252h229l27 196h-205v254h240l51 363h256l-53 -363h205l49 363h256l-49 -363h186v-254h-221l-27 -196h201v-252h-238l-53 -381h-256l53 381h-202l-54 -381h-252l50 381h-193zM569 633h203l29 196h-203z" />
<glyph unicode="$" horiz-adv-x="1366" d="M55 168l187 213q130 -73 207.5 -95t156.5 -28v315q-145 29 -232.5 57t-148.5 83q-112 98 -112 258q0 232 182 354q73 49 146 65.5t163 22.5v236h166v-236q132 -13 232 -50.5t225 -115.5l-180 -209q-80 40 -115.5 55t-67 23.5t-94.5 22.5v-273q154 -34 252 -70t158 -100 q45 -45 70.5 -111.5t25.5 -140.5q0 -64 -19 -127q-25 -90 -69 -147.5t-117 -103.5q-52 -31 -98 -47t-93 -24t-110 -15v-246h-164v246q-159 15 -284 54.5t-267 133.5zM440 1008q0 -37 22.5 -59.5t58 -33.5t85.5 -20v246q-57 -9 -80 -19q-40 -17 -63 -48t-23 -66zM770 262 q178 29 178 156q0 61 -49 87t-129 38v-281z" />
<glyph unicode="%" horiz-adv-x="1792" d="M53 938q0 202 76 328q73 115 201 139q36 4 55 4q71 0 130 -29.5t101.5 -88t66.5 -148.5t24 -211q0 -105 -25 -198t-72 -156q-84 -111 -237 -111q-117 0 -189 70t-101.5 174.5t-29.5 226.5zM262 922q0 -281 121 -281q115 0 115 293q0 64 -8.5 129t-37 116.5t-81.5 51.5 q-53 -4 -74 -64q-35 -75 -35 -245zM428 0l770 1475l164 -86l-770 -1473zM1081 453q0 131 34.5 239t110 173t191.5 65q143 -3 228 -119q34 -48 54 -111t28 -128t8 -119q0 -106 -25 -199t-72 -156q-26 -39 -81.5 -74.5t-149.5 -35.5q-173 0 -249.5 140.5t-76.5 324.5z M1292 442q0 -280 121 -280q115 0 115 293q0 297 -129 297q-51 -4 -72 -64q-35 -76 -35 -246z" />
<glyph unicode="&#x26;" horiz-adv-x="1409" d="M59 432q0 79 31 164q35 84 88.5 140t109 89t126.5 64q-50 83 -72.5 136.5t-22.5 111.5q0 139 97 228t274 89q111 0 190 -42t120.5 -113t41.5 -156q0 -121 -78 -206t-192 -132q82 -128 197 -287q26 56 39 94.5t30 120.5l256 -94q-37 -117 -63 -175t-92 -169 q29 -33 60 -50.5t95 -17.5q16 1 28.5 1.5t33.5 0.5v-229h-162q-98 0 -146.5 20t-107.5 76q-45 -26 -95 -50t-125 -42t-165 -18q-120 0 -214.5 36.5t-157.5 101.5t-93.5 143t-30.5 165zM373 444q0 -74 54.5 -144.5t160.5 -70.5q51 0 96 17.5t104 50.5l-247 381 q-70 -44 -119 -97.5t-49 -136.5zM582 1149q0 -27 12.5 -55t56.5 -101q133 70 133 154q0 39 -27 63.5t-73 24.5q-42 0 -72 -23.5t-30 -62.5z" />
<glyph unicode="'" horiz-adv-x="426" d="M68 1397q0 64 46 100.5t107 36.5q58 0 97.5 -33.5t39.5 -93.5q0 -25 -2 -37l-108 -534h-64l-112 512q-4 18 -4 49z" />
<glyph unicode="(" horiz-adv-x="725" d="M78 602q0 69 10.5 153t53.5 204.5t132 246.5q117 169 314 316l108 -103q-40 -38 -68 -67.5t-59.5 -73.5t-64.5 -107q-40 -73 -71.5 -160t-48.5 -185t-17 -208q0 -109 18 -215t54 -205t87 -180q21 -34 51 -72t59 -66.5t56 -55.5l-104 -121q-136 104 -243.5 217t-187 287 t-79.5 395z" />
<glyph unicode=")" horiz-adv-x="725" d="M31 -180q63 63 105 114t85 134q66 120 101.5 257t35.5 298q0 162 -41 319t-116 279q-56 86 -168 194l104 121q136 -105 243.5 -217.5t187 -286t79.5 -395.5q0 -118 -35.5 -272.5t-160.5 -331.5q-73 -105 -148 -176.5t-164 -139.5z" />
<glyph unicode="*" horiz-adv-x="725" d="M29 1137l47 159l174 -53l67 -57l-41 74v186h164v-184l-34 -78l59 61l178 60l51 -154l-178 -55l-84 8l78 -43l111 -150l-134 -96l-106 152l-19 86l-14 -86l-108 -152l-131 94l108 156l70 39l-78 -19z" />
<glyph unicode="+" horiz-adv-x="1366" d="M86 467v260h469v467h260v-467h465v-260h-465v-467h-260v467h-469z" />
<glyph unicode="," horiz-adv-x="512" d="M92 0v344h328v-262q0 -158 -41 -240q-31 -61 -80.5 -101t-94 -58.5t-108.5 -36.5v145q65 27 89.5 73.5t31.5 135.5h-125z" />
<glyph unicode="-" horiz-adv-x="725" d="M106 457v293h508v-293h-508z" />
<glyph unicode="." horiz-adv-x="512" d="M92 0v342h324v-342h-324z" />
<glyph unicode="/" horiz-adv-x="981" d="M33 0l622 1446h291l-622 -1446h-291z" />
<glyph unicode="0" horiz-adv-x="1151" d="M82 705q0 298 111 483q43 75 129.5 146.5t234.5 76.5q210 0 324 -127.5t150 -289t36 -306.5q0 -132 -24 -254t-81.5 -229t-156 -171.5t-242.5 -64.5q-228 0 -358 193q-123 178 -123 543zM385 637q0 -164 40.5 -289t149.5 -125q96 0 140 115q45 129 45 346 q0 119 -16 224.5t-50 164.5q-45 82 -129 82q-98 -4 -139 -136t-41 -382z" />
<glyph unicode="1" horiz-adv-x="1151" d="M180 969v213q76 6 125 14.5t105 36.5q60 32 89.5 68.5t53.5 87.5h250v-1389h-330v1014q-42 -18 -70 -26.5t-78.5 -13t-144.5 -5.5z" />
<glyph unicode="2" horiz-adv-x="1151" d="M66 891q0 73 5.5 129t26.5 119q104 274 455 274q148 0 258 -55q84 -43 132 -108.5t64.5 -132t16.5 -128.5q0 -101 -36.5 -199t-121 -200.5t-227.5 -218.5q-35 -29 -152 -117l541 8v-262h-952v242q197 155 321 262q75 66 120.5 111.5t84 102.5t58.5 120.5t20 144.5 q0 75 -24.5 133t-116.5 58q-79 0 -121 -56q-31 -40 -31 -137q0 -23 8 -109z" />
<glyph unicode="3" horiz-adv-x="1151" d="M63 467l320 27q0 -20 -0.5 -32.5t-1.5 -27.5q0 -95 49 -150t121 -55q83 0 132.5 54.5t49.5 150.5q0 105 -58 139.5t-147 36.5h-45v236q70 0 103 4q75 19 97 68.5t22 89.5q0 78 -45 117.5t-105 39.5q-63 0 -94.5 -34t-39 -76t-7.5 -90l-324 28q23 216 154 322 q78 63 164 80.5t167 17.5q121 0 201 -27.5t127 -68.5q60 -50 92.5 -123.5t32.5 -153.5q0 -74 -28 -138t-76 -103q-25 -22 -45.5 -32t-79.5 -36q55 -13 80 -22q89 -36 136.5 -116t47.5 -179q0 -71 -25 -141.5t-71 -125.5q-141 -172 -430 -172q-113 0 -211 37.5t-164 114.5 q-64 77 -81.5 160t-17.5 180z" />
<glyph unicode="4" horiz-adv-x="1151" d="M25 319l2 250l573 817h309v-839h185v-228h-185v-319h-323v319h-561zM258 547h330v203l12 329q-15 -28 -49 -94q-15 -27 -27.5 -45t-42.5 -66z" />
<glyph unicode="5" horiz-adv-x="1151" d="M57 436l326 13q0 -70 12 -115q35 -113 152 -113q172 0 172 258q0 121 -49.5 180.5t-126.5 59.5q-38 0 -70 -14q-34 -16 -48 -37t-28 -58l-284 47l84 727h798l-20 -262h-524l-33 -254q97 72 219 72q98 0 178 -36t132.5 -97.5t80 -145.5t27.5 -180q0 -95 -30 -183.5 t-94.5 -162.5t-165 -118t-233.5 -44q-216 0 -346 127q-52 52 -79 109.5t-36 108.5t-14 118z" />
<glyph unicode="6" horiz-adv-x="1151" d="M86 662q0 337 115.5 545t425.5 208q139 0 241 -61q95 -60 133 -142.5t54 -173.5l-328 -37q0 46 -4 68q-10 44 -44 71t-79 27q-81 0 -131 -71q-62 -93 -72 -367q20 36 42.5 61t62.5 48q90 53 196 53q68 0 133.5 -24t123 -76t92 -133.5t34.5 -192.5q0 -227 -136.5 -357.5 t-360.5 -130.5q-148 0 -260 74q-114 74 -176 222.5t-62 388.5zM438 442q0 -82 34 -152.5t126 -70.5q109 0 139.5 74t30.5 149q0 131 -68 183q-38 30 -108 30q-69 -5 -111.5 -60t-42.5 -153z" />
<glyph unicode="7" horiz-adv-x="1151" d="M70 1120v269h981v-250q-96 -116 -168.5 -226t-122.5 -218.5t-94 -243.5q-29 -89 -48 -166t-27.5 -128t-21.5 -157h-381q25 112 55.5 220.5t91.5 259.5t161 319t235 321h-661z" />
<glyph unicode="8" horiz-adv-x="1151" d="M80 397q0 80 26 140q35 83 92 123.5t130 68.5q-78 47 -134.5 116.5t-56.5 196.5q0 68 24 133t78 120t137 86.5t199 31.5q124 0 221.5 -43.5t153.5 -130t56 -207.5q0 -95 -32 -155.5t-73 -90.5t-92 -55q110 -45 182 -113.5t72 -222.5q0 -148 -74.5 -242t-186 -135 t-231.5 -41q-106 0 -200 31t-154 80q-61 51 -99 134.5t-38 174.5zM412 424q0 -102 46 -151.5t111 -49.5q40 0 76 18t55 46q31 39 31 137q0 106 -46.5 149t-96.5 48q-77 0 -126.5 -50t-49.5 -147zM442 1010q0 -66 28.5 -121t104.5 -55q56 0 93 38.5t37 118.5q0 64 -28.5 122 t-109.5 58q-61 -4 -93 -49t-32 -112z" />
<glyph unicode="9" horiz-adv-x="1151" d="M66 924q0 151 62.5 261t176 168t258.5 58q74 0 139.5 -17.5t120.5 -56.5q115 -75 176.5 -220.5t61.5 -389.5q0 -162 -22.5 -291.5t-81.5 -234.5t-166 -166.5t-269 -61.5q-143 0 -241 62q-69 43 -108.5 101t-54.5 107t-24 109l328 35q0 -45 4 -68q11 -44 45 -71t78 -27 q35 0 71.5 19.5t57.5 52.5q59 89 72 366q-51 -91 -137.5 -126t-163.5 -35q-90 0 -178 44t-146.5 139.5t-58.5 242.5zM379 946q0 -131 67 -182q39 -31 109 -31q69 5 111.5 60t42.5 153q0 84 -33.5 153.5t-126.5 69.5q-107 0 -138.5 -74t-31.5 -149z" />
<glyph unicode=":" horiz-adv-x="598" d="M176 0v348h328v-348h-328zM176 725v344h328v-344h-328z" />
<glyph unicode=";" horiz-adv-x="598" d="M176 0v350h328v-325q-7 -75 -23 -132t-69 -118q-35 -41 -72 -64t-66.5 -33t-97.5 -28v143q47 17 72 40t36.5 60.5t16.5 106.5h-125zM176 725v348h328v-348h-328z" />
<glyph unicode="&#x3c;" horiz-adv-x="1366" d="M0 592v254l1366 606v-285l-1001 -448l1001 -440v-285z" />
<glyph unicode="=" horiz-adv-x="1366" d="M0 254v260h1366v-260h-1366zM0 682v258h1366v-258h-1366z" />
<glyph unicode="&#x3e;" horiz-adv-x="1366" d="M0 -6v285l1001 440l-1001 448v285l1366 -606v-254z" />
<glyph unicode="?" d="M125 1094q39 104 74.5 164t115.5 116q141 101 371 101q239 0 375 -103q65 -49 101 -122.5t36 -157.5q0 -119 -48.5 -186.5t-123.5 -127.5q-38 -28 -111 -78.5t-122 -89.5q-41 -31 -53.5 -52t-20.5 -60h-260q4 83 19 130t67 99q33 34 67 58.5t107 72.5q51 37 93 85t42 114 q0 91 -55 139q-49 45 -135 45q-130 0 -201 -96q-27 -41 -35 -73t-10 -73zM430 0v348h324v-348h-324z" />
<glyph unicode="@" horiz-adv-x="1835" d="M141 487q0 193 71.5 369.5t200.5 312.5t301 212.5t369 76.5q185 0 325 -77.5t213 -212.5t73 -308q0 -183 -68 -350.5t-181.5 -271t-238.5 -103.5q-154 0 -184 139q-116 -139 -258 -139q-123 0 -204 90.5t-81 257.5q0 143 57.5 279t161 222.5t226.5 86.5q91 0 137 -36 t80 -87l18 80h187l-70 -323q-12 -63 -24 -122.5t-21.5 -123.5t-9.5 -88q0 -62 39 -62q45 0 108.5 78t108.5 202.5t45 262.5q0 119 -39 204.5t-105.5 139t-146 77t-166.5 23.5q-143 0 -280.5 -63t-245 -175.5t-169 -260.5t-61.5 -312q0 -160 58.5 -273.5t152 -180t201.5 -95 t209 -28.5q139 0 278 47t267 143q79 63 120 109l97 -125q-89 -85 -187.5 -156t-244.5 -125.5t-320 -54.5q-177 0 -362 70t-311 237t-126 434zM692 494q0 -106 44.5 -141.5t84.5 -35.5q38 0 81.5 26.5t76.5 72.5q45 60 69.5 145t24.5 154q-1 81 -39.5 126.5t-99.5 45.5 q-70 0 -126 -62t-86 -154t-30 -177z" />
<glyph unicode="A" horiz-adv-x="1450" d="M-2 0l537 1446h376l533 -1446h-385l-72 231h-532l-72 -231h-385zM539 492h366l-188 610q-34 -134 -60 -223q-23 -81 -60.5 -200t-57.5 -187z" />
<glyph unicode="B" horiz-adv-x="1450" d="M139 0v1446h559q271 0 377 -35q67 -21 113.5 -55.5t78 -81.5t45 -95t13.5 -104q0 -85 -27 -139q-31 -68 -79.5 -107.5t-93.5 -55t-109 -30.5q96 -15 164.5 -39t119.5 -83q38 -41 59 -98.5t21 -119.5q0 -97 -57.5 -196t-181.5 -154q-78 -33 -167 -43t-224 -10h-611z M483 262h252q128 2 203.5 32.5t75.5 139.5q0 113 -62.5 144.5t-154.5 33.5h-314v-350zM483 874h273q99 5 157 31.5t58 124.5q0 91 -56 118.5t-135 27.5h-297v-302z" />
<glyph unicode="C" horiz-adv-x="1409" d="M80 725q0 212 90 387.5t249.5 277t360.5 101.5q122 0 230 -38t192 -105q68 -54 109 -108t80 -124l-287 -143q-42 93 -109 149q-89 72 -198 72q-87 0 -153.5 -36.5t-112 -101t-68.5 -147.5t-23 -174q0 -152 47.5 -260t128.5 -161.5t181 -53.5q122 0 190.5 60.5 t122.5 154.5l285 -145q-36 -56 -62.5 -92.5t-63 -75t-93.5 -78.5q-73 -49 -173 -88t-231 -39q-192 0 -350.5 91t-250 265t-91.5 412z" />
<glyph unicode="D" horiz-adv-x="1493" d="M137 0v1446h461q130 -2 226 -11t206.5 -46.5t194.5 -112.5q72 -67 118 -152.5t67.5 -183.5t21.5 -205q0 -153 -37 -278q-47 -157 -134.5 -251.5t-189 -138t-185 -54t-179.5 -13.5h-570zM502 291h110q132 2 226.5 26t163.5 118t69 286q0 91 -15.5 160.5t-60.5 130.5 q-44 58 -102.5 87t-113.5 35.5t-132 6.5h-145v-850z" />
<glyph unicode="E" horiz-adv-x="1323" d="M139 0v1446h1069v-281h-708v-262h661v-274h-661v-344h772v-285h-1133z" />
<glyph unicode="F" horiz-adv-x="1280" d="M137 0v1446h1110v-279h-749v-303h690v-280h-690v-584h-361z" />
<glyph unicode="G" horiz-adv-x="1536" d="M82 721q0 170 52.5 314t149.5 247t226.5 158t284.5 55q137 0 246 -37t182 -89t118 -100.5t91 -107.5l-275 -166q-56 88 -130.5 146.5t-205.5 58.5q-130 0 -215.5 -64.5t-124.5 -171.5t-39 -233q0 -121 30.5 -217t84.5 -152q44 -46 114 -75t150 -29q116 0 199 55 q64 42 85.5 91.5t31.5 123.5h-324v275h629v-803h-283v135q-73 -68 -169.5 -118t-256.5 -50q-197 0 -345 98.5t-227 270t-79 385.5z" />
<glyph unicode="H" horiz-adv-x="1536" d="M139 0v1446h365v-522h528v522h363v-1446h-363v616h-528v-616h-365z" />
<glyph unicode="I" horiz-adv-x="641" d="M137 0v1446h361v-1446h-361z" />
<glyph unicode="J" horiz-adv-x="811" d="M33 0v293h61q103 0 147 11t59 41t15 97v1004h363v-1043q0 -122 -11.5 -185.5t-60.5 -117.5q-54 -60 -138.5 -80t-193.5 -20h-241z" />
<glyph unicode="K" horiz-adv-x="1450" d="M139 0v1446h344v-590l541 590h434l-512 -537l553 -909h-407l-387 655l-222 -231v-424h-344z" />
<glyph unicode="L" horiz-adv-x="1110" d="M139 0v1448h361v-1143h565v-305h-926z" />
<glyph unicode="M" horiz-adv-x="1878" d="M139 0v1446h529l221 -811l51 -232q24 114 39 179l231 864h527v-1446h-346l22 1030l4 146l-12 -52q-24 -102 -37 -153l-272 -971h-312l-262 930l-63 258q2 -33 3.5 -76t4.5 -110.5t4 -90.5l18 -911h-350z" />
<glyph unicode="N" horiz-adv-x="1493" d="M137 0v1446h355l313 -533q93 -162 217 -395l-16 928h346v-1446h-355l-270 457q-102 170 -142.5 241.5t-111.5 210.5l10 -909h-346z" />
<glyph unicode="O" horiz-adv-x="1622" d="M86 729q0 148 47 286t137 244.5t225 169t304 62.5q142 0 264 -43q199 -69 303.5 -215.5t136 -285t31.5 -232.5q0 -119 -34.5 -234.5t-96 -209t-143.5 -160.5q-184 -152 -455 -152q-221 0 -384.5 103t-249 280t-85.5 387zM442 735q0 -164 53 -269.5t136 -153.5t174 -48 q66 0 130 24.5t116 76.5t84.5 135.5t35.5 189.5q0 131 -29.5 231t-86.5 162q-48 51 -114 79t-140 28q-108 0 -189 -58.5t-125.5 -162t-44.5 -234.5z" />
<glyph unicode="P" horiz-adv-x="1409" d="M137 0v1446h582q117 0 192.5 -4t145.5 -20.5t131.5 -54t105.5 -103.5q41 -61 61.5 -138.5t20.5 -158.5q0 -125 -49 -226q-44 -92 -112 -146.5t-144.5 -79t-152 -32.5t-179.5 -10h-239v-473h-363zM500 741h217q93 0 152.5 12t103 62.5t43.5 153.5q0 137 -81.5 174 t-205.5 37h-229v-439z" />
<glyph unicode="Q" horiz-adv-x="1622" d="M86 729q0 212 88 385.5t251 274t380 100.5q168 0 305.5 -59.5t231.5 -163.5t144 -241.5t50 -289.5q0 -92 -14 -166t-34.5 -129t-42 -95t-52.5 -91q65 -58 119.5 -84t160.5 -45l-104 -256q-90 17 -138.5 33t-104.5 49.5t-155 107.5q-116 -54 -188 -77t-176 -23 q-143 0 -276 51.5t-230 143.5q-114 111 -164.5 264t-50.5 311zM446 731q0 -214 101.5 -340.5t267.5 -126.5q87 0 156.5 36.5t115.5 102t68.5 147.5t22.5 179q0 92 -25 174t-57 131q-56 88 -141 119t-169 31q-121 -7 -197 -75.5t-109.5 -168.5t-33.5 -209z" />
<glyph unicode="R" horiz-adv-x="1450" d="M137 0v1446h651q162 -2 273 -26.5t201 -121.5q51 -56 82.5 -141.5t31.5 -179.5q0 -189 -87 -272t-210 -127l334 -578h-399l-287 516h-227v-516h-363zM500 784h299q217 9 217 199q0 84 -33.5 126.5t-75.5 53.5t-100 13h-307v-392z" />
<glyph unicode="S" horiz-adv-x="1409" d="M18 260l275 174q67 -74 139 -112q129 -70 279 -70q109 0 187.5 47.5t78.5 120.5q0 77 -67.5 104.5t-184.5 42.5q-175 24 -238 37q-82 17 -164 50.5t-153.5 117.5t-71.5 225q0 174 88 282.5t220.5 155t273.5 46.5q222 0 364.5 -77t274.5 -198l-266 -190q-81 81 -144 117 q-115 63 -235 63q-69 0 -117.5 -22.5t-73 -57.5t-24.5 -72q0 -50 30.5 -78.5t68.5 -39t85 -17.5q124 -14 253 -39t189 -47q81 -29 137.5 -81t84.5 -121t28 -152q0 -79 -30 -161.5t-84 -145.5q-61 -71 -147.5 -114.5t-187 -62t-208.5 -18.5q-141 0 -251.5 28.5t-187 73.5 t-122.5 88t-99 103z" />
<glyph unicode="T" horiz-adv-x="1151" d="M14 1161v287h1114v-287h-374v-1161h-363v1161h-377z" />
<glyph unicode="U" horiz-adv-x="1493" d="M127 639v807h365v-901q0 -61 5.5 -105.5t20.5 -74.5q32 -53 95.5 -76t138.5 -23q112 0 166 42.5t66.5 97t14.5 141.5v899h363v-807q-2 -107 -6.5 -161.5t-22.5 -121.5t-55 -127q-69 -110 -179 -169t-203 -76t-157 -17q-82 0 -171 20t-165 58q-98 51 -156 122t-82.5 148 t-31 149.5t-6.5 174.5z" />
<glyph unicode="V" horiz-adv-x="1366" d="M-2 1446h385l299 -1028l297 1028h385l-502 -1446h-368z" />
<glyph unicode="W" horiz-adv-x="2005" d="M0 1446h360q48 -209 88 -387.5t61.5 -284t36.5 -198.5t29 -205q40 213 64 315.5t80 312.5l119 447h319q33 -117 60 -214t73 -253q45 -155 64.5 -228t36.5 -157.5t39 -218.5q34 223 49.5 306t68.5 325q17 82 28 132t27 124t39 184h359l-367 -1446h-372q-111 395 -136 477 q-30 103 -45 155.5t-26 94.5t-19.5 76t-34.5 153q-27 -132 -41 -187t-81 -282l-140 -487h-372z" />
<glyph unicode="X" horiz-adv-x="1579" d="M0 0l559 784l-481 662h428l278 -436l283 436h420l-477 -662l563 -784h-414l-371 547l-374 -547h-414z" />
<glyph unicode="Y" horiz-adv-x="1450" d="M4 1446h416l311 -496q22 47 60 109l247 387h412l-547 -762v-684h-356v674z" />
<glyph unicode="Z" horiz-adv-x="1280" d="M10 0v270l801 893h-733v283h1167v-283l-788 -878h784v-285h-1231z" />
<glyph unicode="[" horiz-adv-x="725" d="M139 -213v1659h545v-164h-278v-1327h276v-168h-543z" />
<glyph unicode="\" horiz-adv-x="981" d="M33 1446h291l622 -1446h-291z" />
<glyph unicode="]" horiz-adv-x="725" d="M43 -47h279v1327h-277v166h543v-1659h-545v166z" />
<glyph unicode="^" horiz-adv-x="1366" d="M199 664l399 782h186l383 -782h-241l-238 501l-250 -501h-239z" />
<glyph unicode="_" horiz-adv-x="1024" d="M-20 -154h1064v-102h-1064v102z" />
<glyph unicode="`" horiz-adv-x="555" d="M12 1475h379l152 -273h-207z" />
<glyph unicode="a" horiz-adv-x="1194" d="M90 297q0 116 70.5 194.5t154.5 112.5q87 38 422 98v58q-5 58 -25.5 94.5t-95.5 36.5q-91 0 -123 -37.5t-42 -87.5h-316q6 76 27 131.5t86 106.5q120 94 350 94q160 0 304.5 -63.5t144.5 -243.5v-623q0 -78 6 -108.5t24 -59.5h-309v98q-54 -40 -95.5 -65.5t-99.5 -43.5 t-133 -18q-170 0 -260 99.5t-90 226.5zM399 311q0 -41 32.5 -74.5t86.5 -33.5t109 35q71 45 89.5 105.5t20.5 168.5l-202 -68q-60 -22 -98 -51t-38 -82z" />
<glyph unicode="b" horiz-adv-x="1280" d="M141 0v1448h308v-475q53 56 119.5 92.5t187.5 36.5q73 0 150.5 -27.5t147 -90t113 -169t43.5 -258.5q0 -92 -15.5 -177t-49.5 -153q-47 -104 -150 -180t-250 -76q-120 0 -187 40t-126 102l12 -113h-303zM440 545q0 -67 12.5 -132t36.5 -108q31 -48 81.5 -74t105.5 -26 q56 0 97 24t67 56q24 32 38.5 82.5t19.5 99.5t5 80q0 143 -52.5 233t-178.5 90q-148 -8 -190 -112.5t-42 -212.5z" />
<glyph unicode="c" horiz-adv-x="1024" d="M68 524q0 159 61 290t182.5 207.5t292.5 76.5q72 0 151.5 -19.5t161.5 -76.5t144 -160l-234 -133q-32 70 -90 112q-53 37 -119 37q-114 0 -170.5 -103t-56.5 -220q0 -74 25.5 -149t80 -123t132.5 -48q94 0 159 74q29 32 48 86l237 -123q-80 -128 -168 -191 q-138 -96 -307 -96q-116 0 -238.5 53t-207 179t-84.5 327z" />
<glyph unicode="d" d="M66 528q0 192 64 320.5t165 189t215 60.5q94 0 155.5 -29.5t127.5 -79.5v457h305v-1446h-287v100q-36 -36 -71 -62.5t-91 -46.5t-127 -20q-82 0 -160.5 31t-140.5 92q-70 69 -104.5 153t-42.5 151.5t-8 129.5zM385 535q0 -137 46.5 -234.5t154.5 -97.5q53 0 102 33 q111 75 111 299q0 182 -68 264q-49 63 -123 63q-141 0 -182 -111t-41 -216z" />
<glyph unicode="e" horiz-adv-x="1194" d="M66 514q0 106 28 208.5t92.5 189t171.5 139.5t256 53q90 0 193.5 -29t191.5 -125q50 -53 80 -115.5t45.5 -129t20 -116.5t6.5 -118h-764q0 -109 62 -187.5t182 -78.5q114 0 171.5 52.5t98.5 135.5l238 -121q-70 -105 -129 -159q-74 -69 -178.5 -110.5t-225.5 -41.5 q-159 0 -281.5 65.5t-190.5 192t-68 295.5zM389 668h436q-7 51 -18 86t-41 65q-60 60 -154 60q-95 0 -159 -70q-29 -32 -41.5 -63.5t-22.5 -77.5z" />
<glyph unicode="f" horiz-adv-x="725" d="M20 852v192h170v132q0 117 46 182q20 28 58 53t92 40t124 15q51 0 188 -18v-236h-75q-59 0 -85 -12t-32 -43t-6 -113h211v-192h-209v-852h-314v852h-168z" />
<glyph unicode="g" d="M63 563q0 123 43 242.5t146 200.5t266 81q107 0 172 -33t115 -83v100h295v-1028q-2 -73 -11.5 -131.5t-45 -114.5t-107.5 -98q-135 -82 -365 -82q-142 0 -248.5 39.5t-160.5 93.5q-52 53 -67 116.5t-15 133.5h326q5 -54 20.5 -91t71.5 -63q40 -20 100 -20q126 0 158 53.5 t32 147.5v114q-64 -43 -123.5 -66.5t-158.5 -23.5q-140 0 -244 70q-199 128 -199 442zM389 565q0 -109 37 -192.5t164 -83.5q111 0 153.5 74t42.5 202q0 152 -38 209q-19 32 -64.5 55t-108.5 23q-103 -4 -144.5 -81t-41.5 -206z" />
<glyph unicode="h" d="M139 0v1448h316v-492q40 40 74.5 67t95.5 51t137 24q137 0 227 -76q66 -56 88.5 -129.5t22.5 -190.5v-702h-314v559q0 121 -14 164q-20 63 -63 84.5t-84 21.5q-84 0 -129 -61q-28 -38 -34.5 -91t-6.5 -145v-532h-316z" />
<glyph unicode="i" horiz-adv-x="598" d="M143 0v1071h312v-1071h-312zM143 1204v244h312v-244h-312z" />
<glyph unicode="j" horiz-adv-x="598" d="M0 -113q67 0 97.5 14.5t37 43.5t6.5 94v1030h312v-1057q0 -122 -15.5 -197t-82 -127.5t-210.5 -52.5l-145 3v249zM141 1204v242h312v-242h-312z" />
<glyph unicode="k" horiz-adv-x="1194" d="M137 0v1446h309v-744l347 367h378l-368 -381l416 -688h-365l-274 461l-136 -127v-334h-307z" />
<glyph unicode="l" horiz-adv-x="598" d="M139 0v1446h316v-1446h-316z" />
<glyph unicode="m" horiz-adv-x="1835" d="M137 0v1067h312v-111q33 38 65 65t93.5 51t144.5 24q118 0 178 -32t119 -93q69 58 136.5 91.5t180.5 33.5q120 0 194.5 -46.5t104.5 -107.5q19 -37 24 -89t5 -157v-696h-312v561q0 141 -12 182q-18 58 -59 77.5t-78 19.5q-60 0 -103 -33q-40 -31 -49.5 -76.5t-9.5 -148.5 v-582h-311v633q0 107 -31 151q-18 26 -52 41t-71 15q-48 0 -86 -25q-45 -31 -58 -82.5t-13 -124.5v-608h-312z" />
<glyph unicode="n" d="M143 0v1067h318v-94q33 35 51.5 51t54.5 33q96 39 195 39q111 0 190 -43q55 -29 86 -71.5t43.5 -101.5t12.5 -149v-731h-314v602q0 126 -14 160q-17 41 -54 61.5t-87 20.5q-76 0 -113 -36t-45 -89t-8 -141v-578h-316z" />
<glyph unicode="o" horiz-adv-x="1280" d="M66 537q0 120 36.5 223.5t108 180t179.5 120t243 43.5q16 0 26.5 -0.5t22.5 -1.5q155 -9 260.5 -67t165.5 -145.5t83 -177.5t23 -175q0 -145 -59 -275t-188 -211.5t-326 -81.5q-157 0 -287.5 61t-209 189t-78.5 318zM383 539q0 -89 28.5 -161t87 -115.5t142.5 -43.5 q123 0 188.5 86.5t65.5 218.5q0 182 -88 269q-41 37 -86.5 48t-97.5 11q-68 -5 -111 -29.5t-76 -74.5q-53 -84 -53 -209z" />
<glyph unicode="p" d="M131 -371v1436h281v-100q20 24 30 34q43 42 114.5 68.5t154.5 26.5q131 0 237.5 -65t167 -190.5t60.5 -299.5q0 -92 -21.5 -186.5t-75.5 -180.5t-145.5 -139t-220.5 -53q-58 0 -101 11.5t-72.5 26.5t-90.5 52v-441h-318zM434 532q0 -181 76 -264q58 -61 141 -61 q74 0 123.5 46.5t73.5 122.5t24 165q0 123 -39.5 212t-127.5 111q-22 6 -43 6q-100 0 -162 -86q-66 -87 -66 -252z" />
<glyph unicode="q" d="M63 522q0 181 61.5 311.5t167 197.5t234.5 67q99 0 161 -32.5t124 -88.5v90h287v-1436h-316v445q-54 -40 -118 -69.5t-158 -29.5q-114 0 -215 59.5t-164.5 182.5t-63.5 303zM375 539q0 -95 28 -168.5t77.5 -116.5t109.5 -43q58 0 107.5 36.5t79.5 112.5t30 187 q0 103 -27.5 176.5t-75.5 111t-110 37.5q-75 0 -147 -72.5t-72 -260.5z" />
<glyph unicode="r" horiz-adv-x="768" d="M135 0v1071h307v-113q61 52 129.5 82t180.5 41v-278l-105 -17q-85 -15 -123.5 -31.5t-55.5 -51t-17 -101.5v-602h-316z" />
<glyph unicode="s" horiz-adv-x="1067" d="M-4 180l199 180q150 -147 311 -147q72 0 131 26t59 78q0 40 -41 62q-22 11 -48 17.5t-59 12t-75 11.5q-85 14 -143 33q-118 32 -178 92q-37 37 -58.5 89t-21.5 111q0 91 52 174.5t154.5 134t243.5 50.5q164 0 276 -48t201 -112l-194 -180q-73 57 -140.5 81.5t-127.5 24.5 q-82 0 -117 -24.5t-35 -54.5t20 -47t56.5 -26.5t93.5 -19.5q95 -16 176.5 -39t144.5 -59t103.5 -98t40.5 -154q0 -120 -71.5 -205t-188 -127.5t-246.5 -42.5q-132 0 -237 35t-167 78.5t-114 93.5z" />
<glyph unicode="t" horiz-adv-x="725" d="M23 854v193h155v331h314v-334h206v-192h-209v-481q0 -63 14 -92t68 -29l113 4v-246q-109 -16 -166 -16q-64 0 -116 6t-99.5 29t-79.5 69q-30 45 -37.5 100t-7.5 142v516h-155z" />
<glyph unicode="u" d="M131 397v672h318v-663q0 -48 4 -77t20 -50q41 -54 125 -54q61 0 109 27q45 28 57 61.5t14 89.5v666h316v-1069h-316v102q-48 -55 -106 -84q-98 -49 -203 -49q-191 0 -272 113q-40 56 -53 120.5t-13 194.5z" />
<glyph unicode="v" horiz-adv-x="1024" d="M0 1069h332q91 -328 128 -482.5t60 -295.5q35 190 52 266.5t61 249.5l65 262h324l-346 -1069h-330z" />
<glyph unicode="w" horiz-adv-x="1622" d="M0 1069h332l149 -747l162 747h336l145 -754l168 754h326l-320 -1069h-342l-157 713l-160 -713h-346z" />
<glyph unicode="x" horiz-adv-x="1067" d="M0 0l362 580l-323 489h356l142 -272l151 272h338l-324 -500l363 -569h-336l-203 332l-178 -332h-348z" />
<glyph unicode="y" horiz-adv-x="1024" d="M0 1069h336l176 -766l176 766h336l-377 -1155q-46 -134 -100 -195q-50 -53 -101 -68.5t-127 -17.5h-227v250h111q59 2 95 15.5t36 62.5q0 27 -15 76z" />
<glyph unicode="z" horiz-adv-x="1110" d="M70 0v238l577 589h-516v242h916v-242l-570 -581h570v-246h-977z" />
<glyph unicode="{" horiz-adv-x="725" d="M72 559v109q73 15 108 64.5t43 110.5t8 154v93q0 106 4 158t19.5 95.5t50.5 81.5q42 46 95.5 66.5t120.5 25.5t200 5v-111q-94 -20 -133 -49q-61 -43 -74.5 -102t-15.5 -193v-47q-2 -135 -5.5 -173.5t-19.5 -78.5q-28 -78 -74.5 -106.5t-115.5 -49.5q143 -38 188 -145 q18 -38 22.5 -83.5t6.5 -174.5v-51q0 -140 16 -189q17 -52 45 -80.5t66.5 -44t93.5 -30.5v-111q-124 0 -192.5 5t-127 27t-100.5 70q-46 52 -57 117t-11 184v101q-2 153 -10 190q-15 58 -55 102t-96 60z" />
<glyph unicode="|" horiz-adv-x="469" d="M104 -512v2048h261v-2048h-261z" />
<glyph unicode="}" horiz-adv-x="725" d="M37 -186q94 20 133 49q42 29 60.5 66.5t23 81t6.5 147.5v47q2 123 5.5 165t19.5 87q29 77 76.5 107t113.5 48q-34 9 -67 23t-67 45t-54 78q-18 44 -22.5 93t-6.5 165v51q0 80 -2.5 117.5t-13.5 70.5q-22 72 -67 101t-138 55v111q124 0 192.5 -5t127.5 -27.5t100 -70.5 q44 -50 55.5 -115.5t11.5 -185.5v-100q2 -154 11 -191q15 -57 55.5 -101t95.5 -60v-109q-56 -11 -90 -43.5t-49 -78t-18 -92t-3 -116.5v-92q0 -151 -12 -216.5t-61 -119.5q-42 -45 -96 -66t-120.5 -25.5t-199.5 -4.5v111z" />
<glyph unicode="~" horiz-adv-x="1366" d="M168 604q125 182 297 182q52 0 99.5 -15t119.5 -50l70 -33q58 -24 86 -33.5t63 -9.5q57 0 105.5 35.5t95.5 91.5l94 -182q-68 -71 -137 -118.5t-164 -47.5q-46 0 -91.5 15.5t-119.5 49.5l-59 29q-44 21 -83 34t-75 13q-40 0 -68.5 -13t-55.5 -39t-79 -87z" />
<glyph unicode="&#xa1;" horiz-adv-x="598" d="M84 0v420l96 532h137l93 -518v-434h-326zM84 1102v344h326v-344h-326z" />
<glyph unicode="&#xa2;" horiz-adv-x="1110" d="M66 526q0 123 36.5 226.5t104 178t153.5 115t187 46.5v229h158v-231q143 -22 226.5 -90.5t145.5 -157.5l-233 -135q-42 73 -69.5 98t-69.5 37v-619q51 14 81.5 46t65.5 104l233 -121q-26 -44 -51.5 -79.5t-71 -77t-108.5 -73.5t-149 -49v-243h-158v239q-121 14 -230 72.5 t-180 178.5t-71 306zM391 535q0 -99 27.5 -163t59 -91.5t69.5 -49.5v611q-79 -34 -117.5 -124t-38.5 -183z" />
<glyph unicode="&#xa3;" horiz-adv-x="1409" d="M33 217q0 110 91.5 185t248.5 75q37 0 127 -12q-24 54 -41 83.5t-43 63.5h-297v201h157q-73 112 -73 231q0 99 62 190.5t188 141.5q121 47 323 47q296 0 414 -139q87 -101 94 -330l-313 -22q-6 119 -44.5 179t-166.5 60q-70 0 -141.5 -30t-71.5 -133q0 -37 14 -72.5 t33.5 -65t42.5 -57.5h319v-201h-184q53 -91 53 -196q0 -43 -8 -88q15 -11 44.5 -34t48.5 -31.5t42 -8.5q43 0 63.5 27t28 73t11.5 131l299 -22q-8 -132 -24.5 -220t-63.5 -153q-76 -102 -207 -102q-84 0 -158.5 36t-181.5 111q-53 -65 -136 -115.5t-227 -50.5 q-129 0 -226 64.5t-97 183.5zM256 227q0 -35 27.5 -57.5t66.5 -22.5q27 0 66 15q38 18 56 43t38 67q-28 15 -65 27t-74 12q-55 0 -85 -26t-30 -58z" />
<glyph unicode="&#xa4;" horiz-adv-x="1366" d="M12 219l168 166q-40 67 -64 134t-24 175q0 112 23 176t63 134l-162 163l193 195l164 -164q63 38 135 63t176 25q107 0 178 -25.5t131 -62.5l164 164l197 -195l-168 -163q37 -60 62.5 -131.5t25.5 -178.5t-24.5 -176.5t-63.5 -134.5l166 -168l-197 -195l-164 168 q-25 -15 -54.5 -29t-64 -26.5t-84.5 -21.5t-104 -9q-71 0 -132 14t-98 31.5t-81 42.5l-166 -165zM348 694q0 -78 28.5 -141t77.5 -107t111 -67t121 -23q91 0 166.5 43t120 120t45.5 175q0 99 -47.5 177t-125.5 119.5t-161 41.5q-63 0 -122 -22.5t-108 -66t-77.5 -107.5 t-28.5 -142z" />
<glyph unicode="&#xa5;" horiz-adv-x="1450" d="M4 1417h416l309 -483l309 483h412l-354 -483h174v-221h-336l-31 -43v-99h367v-221h-367v-350h-356v350h-369v221h369v88l-37 54h-332v221h172z" />
<glyph unicode="&#xa6;" horiz-adv-x="469" d="M104 -358v716h261v-716h-261zM104 666v716h261v-716h-261z" />
<glyph unicode="&#xa7;" d="M43 606q0 63 27 125q30 68 74 109t106 80q-44 56 -61 90t-17 90q0 63 31 127q51 103 151.5 144.5t218.5 41.5q155 0 279.5 -46t280.5 -132l-201 -160q-49 27 -103 51.5t-115.5 41t-125.5 16.5q-111 0 -111 -60q0 -17 15 -39q8 -12 23 -21.5t37.5 -20.5t90.5 -44 q23 -11 63.5 -28.5t76 -33.5t69.5 -32q115 -54 192.5 -108t118.5 -121t41 -152q0 -117 -57 -190.5t-146 -140.5q35 -49 52.5 -86.5t17.5 -88.5q0 -80 -48.5 -152t-137.5 -115.5t-201 -43.5q-152 0 -332 66q-110 41 -243 125l198 161q205 -120 348 -120q69 0 92 23.5t23 41.5 q0 19 -26 43.5t-121 69.5q-22 10 -166 78q-147 63 -215 106q-52 35 -89.5 66.5t-73.5 94.5t-36 144zM326 659q0 -51 41 -94q17 -17 34.5 -28.5t62 -32.5t152.5 -70q76 -35 218 -112q40 38 62 69.5t22 77.5q0 42 -25.5 74t-70.5 57.5t-136 67.5q-117 56 -268 133 q-40 -29 -66 -60.5t-26 -81.5z" />
<glyph unicode="&#xa8;" horiz-adv-x="555" d="M-139 1223v254h321v-254h-321zM375 1223v254h321v-254h-321z" />
<glyph unicode="&#xa9;" horiz-adv-x="1706" d="M125 723q0 153 56.5 286t159 233t234.5 155t279 55q154 0 289 -57.5t233.5 -158t152.5 -234t54 -283.5q0 -146 -57 -281t-155.5 -233.5t-233 -154.5t-285.5 -56q-139 0 -272 53.5t-235.5 151.5t-161 233.5t-58.5 290.5zM190 723q0 -182 89.5 -335t242 -241t332.5 -88 q136 0 257.5 50t213 141.5t142.5 213.5t51 255q0 137 -49 258t-138 213t-211 144t-262 52q-138 0 -260 -51t-214 -143t-143 -213t-51 -256zM358 723q0 139 61.5 257.5t177.5 187.5t273 69q145 0 238.5 -51t163.5 -123l-178 -172q-52 51 -105 75.5t-121 24.5 q-127 0 -191.5 -78.5t-64.5 -187.5q0 -79 31.5 -138.5t91.5 -92.5t137 -33q124 0 222 92l178 -164q-91 -96 -189.5 -134t-212.5 -38q-161 0 -277 68.5t-175.5 184.5t-59.5 253z" />
<glyph unicode="&#xaa;" horiz-adv-x="682" d="M76 1044q0 97 66.5 137.5t133.5 51.5q18 4 54 10t53 10l39 11q0 82 -74 82q-65 0 -76 -64h-174q4 70 37 111q56 71 205 71q133 0 199 -55q47 -42 47 -113v-354q2 -33 20 -57h-174q-2 20 -2 49q-38 -28 -74 -44t-86 -16q-90 0 -142 49t-52 121zM248 1053q0 -13 11 -31 t46 -18q50 0 80 30q22 22 28.5 49.5t6.5 65.5q-59 -16 -100.5 -30t-56.5 -28.5t-15 -37.5z" />
<glyph unicode="&#xab;" horiz-adv-x="854" d="M66 473v254l327 274v-282l-133 -117l133 -117v-280zM451 471v256l323 274v-282l-139 -117l139 -117v-280z" />
<glyph unicode="&#xac;" horiz-adv-x="1366" d="M2 465v260h1364v-725h-260v465h-1104z" />
<glyph unicode="&#xad;" horiz-adv-x="725" d="M106 457v293h508v-293h-508z" />
<glyph unicode="&#xae;" horiz-adv-x="1706" d="M125 723q0 154 56.5 287t159.5 233.5t234.5 154.5t278.5 54q154 0 289 -57.5t233 -158t152.5 -233.5t54.5 -282q0 -147 -56.5 -282t-155.5 -234t-233.5 -155t-285.5 -56q-139 0 -272 53.5t-235.5 151.5t-161 233.5t-58.5 290.5zM190 723q0 -182 89.5 -335t242 -241 t332.5 -88q136 0 257.5 50t212.5 141t142.5 214t51.5 257q0 136 -49 256.5t-138 212.5t-211 144t-262 52q-137 0 -258.5 -51t-214.5 -143t-144 -213t-51 -256zM514 262v938h334q152 0 221 -22q82 -25 124 -92t42 -140q0 -91 -46.5 -136.5t-117.5 -78.5q48 -30 69.5 -62.5 t35.5 -113.5q19 -118 33.5 -176.5t45.5 -116.5h-258q-19 40 -30.5 89t-20.5 114q-13 98 -25.5 132t-40.5 45t-102 13h-39v-393h-225zM739 834h99q49 0 81.5 4t49.5 14q19 11 30 34t11 48q0 26 -12.5 49.5t-36.5 34.5q-27 10 -154 10h-68v-194z" />
<glyph unicode="&#xaf;" horiz-adv-x="555" d="M-139 1223v207h835v-207h-835z" />
<glyph unicode="&#xb0;" horiz-adv-x="725" d="M10 1176q0 96 47.5 176.5t128 128t176.5 47.5t177 -47.5t128.5 -128t47.5 -176.5t-47.5 -177t-128.5 -128.5t-177 -47.5t-176.5 47.5t-128 128.5t-47.5 177zM248 1176q0 -47 34 -81t80 -34q48 0 81.5 33.5t33.5 81.5q0 47 -33.5 80.5t-81.5 33.5q-46 0 -80 -34t-34 -80z " />
<glyph unicode="&#xb1;" horiz-adv-x="1366" d="M86 0v260h1194v-260h-1194zM86 760v260h469v426h260v-426h465v-260h-465v-428h-260v428h-469z" />
<glyph unicode="&#xb2;" horiz-adv-x="768" d="M47 1061q0 62 6 107.5t29 91.5q74 149 272 149q90 0 152 -27q62 -24 102 -69t57 -97.5t17 -103.5q0 -105 -58 -193t-180 -184q-63 -50 -94 -71h336v-181h-629v168q144 111 231.5 189.5t126 143t38.5 138.5q0 51 -25 83t-68 32q-47 0 -71.5 -38t-24.5 -85q0 -21 8 -65z " />
<glyph unicode="&#xb3;" horiz-adv-x="768" d="M45 797l217 18q0 -14 -0.5 -22.5t-1.5 -18.5q0 -62 31.5 -98.5t79.5 -36.5q50 0 82 35t32 86q0 50 -26 80q-22 27 -57.5 35t-82.5 8v161q15 0 24 -0.5t19 -1.5q49 0 76 26t27 73q0 44 -27 71t-67 27q-88 0 -88 -133l-220 20q13 75 37.5 134t94 104t194.5 45 q92 0 158.5 -31.5t101.5 -85.5t35 -123q0 -152 -139 -200q63 -20 115.5 -65.5t52.5 -147.5q0 -119 -85 -204t-255 -85q-139 0 -212.5 51t-94.5 123t-21 156z" />
<glyph unicode="&#xb4;" horiz-adv-x="555" d="M16 1200l150 273h373l-314 -273h-209z" />
<glyph unicode="&#xb5;" d="M131 -434v1503h318v-651q0 -88 30 -131q45 -62 133 -62q100 0 133 61.5t33 116.5v664h316v-1067h-316v102q-32 -57 -72.5 -94t-121.5 -37q-71 0 -135 52v-457h-318z" />
<glyph unicode="&#xb6;" horiz-adv-x="1366" d="M264 1006q0 208 135 329q76 70 154 89.5t174 21.5h512v-160h-74v-1628h-172v1628h-241v-1628h-172v940q-57 17 -92 31.5t-78 46.5q-72 58 -109 145t-37 185z" />
<glyph unicode="&#xb8;" horiz-adv-x="555" d="M78 -297l57 47q52 -65 111 -65q29 0 50 18t21 45q0 35 -32.5 58.5t-81.5 23.5q-13 0 -19 -1t-15.5 -2t-21.5 -3l-24 37l65 121h97l-43 -91q56 7 80 7q89 0 122 -44.5t33 -89.5q0 -44 -26.5 -83t-71 -61.5t-98.5 -22.5q-114 0 -203 106z" />
<glyph unicode="&#xb9;" horiz-adv-x="768" d="M98 1106v149q89 3 138.5 17t78 40t54.5 74h174v-903h-226v650q-45 -15 -89 -21t-130 -6z" />
<glyph unicode="&#xba;" horiz-adv-x="725" d="M61 1169q0 81 32.5 148.5t98 107.5t158.5 41q119 0 187.5 -50t95 -118.5t26.5 -128.5q0 -115 -55 -192q-44 -62 -110 -86.5t-136 -24.5q-53 0 -104.5 15t-97 52.5t-70.5 96t-25 139.5zM233 1165q0 -65 32 -112t97 -47q37 0 60 12q63 36 63 147q0 69 -31.5 115.5 t-99.5 46.5q-65 -5 -96 -53q-25 -42 -25 -109z" />
<glyph unicode="&#xbb;" horiz-adv-x="854" d="M74 197v282l139 119l-139 117v278l323 -264v-256zM457 197v282l131 119l-131 117v278l325 -268v-252z" />
<glyph unicode="&#xbc;" horiz-adv-x="1792" d="M98 1106v149q89 3 138.5 17t78 40t54.5 74h174v-905h-226v652q-45 -15 -89 -21t-130 -6zM430 0l768 1477l164 -86l-770 -1475zM1047 201v172l378 532h213v-545h119v-159h-121v-201h-217v201h-372zM1217 360h204v308q-61 -100 -80 -129q-33 -51 -124 -179z" />
<glyph unicode="&#xbd;" horiz-adv-x="1792" d="M98 1106v149q89 3 138.5 17t78 40t54.5 74h174v-905h-226v652q-45 -15 -89 -21t-130 -6zM381 0l768 1477l164 -86l-770 -1475zM1071 578q0 62 6.5 107.5t28.5 90.5q75 150 272 150q90 0 152 -27q62 -24 102 -69t57 -97.5t17 -103.5q0 -106 -58 -193.5t-180 -183.5 q-48 -40 -94 -72h336v-180h-629v168q152 117 235.5 193t122 140t38.5 138q0 49 -25 82t-68 33q-47 0 -71.5 -38t-24.5 -85q0 -20 8 -66z" />
<glyph unicode="&#xbe;" horiz-adv-x="1792" d="M45 797l217 18q0 -14 -0.5 -22.5t-1.5 -18.5q0 -62 32.5 -98.5t80.5 -36.5q50 0 82 35t32 86q0 50 -26 80q-23 27 -58.5 35t-80.5 8v161q13 0 21.5 -0.5t18.5 -1.5q49 0 76 26t27 73q0 44 -27 71t-67 27q-86 0 -86 -133l-222 20q13 75 37.5 134t94 104t194.5 45 q92 0 158.5 -31.5t101.5 -85.5t35 -123q0 -92 -44.5 -137.5t-92.5 -62.5q63 -20 115.5 -65.5t52.5 -147.5q0 -119 -85 -204t-255 -85q-142 0 -214.5 51t-94 123t-21.5 156zM492 0l768 1475l163 -86l-770 -1473zM1049 201v172l376 530h213v-543h119v-159h-121v-201h-217v201 h-370zM1217 360h204v306q-61 -100 -80 -129q-30 -46 -124 -177z" />
<glyph unicode="&#xbf;" d="M39 360q0 119 50 188t122 126q24 18 108.5 76.5t124.5 91.5q42 33 54 52.5t20 59.5h260q-4 -85 -17.5 -128.5t-68.5 -100.5q-28 -29 -72.5 -60t-101.5 -71q-135 -96 -135 -199q0 -79 47 -131q48 -53 143 -53q132 0 201 96q26 38 34.5 71.5t10.5 74.5l293 -95 q-33 -94 -71 -159t-119 -121q-140 -101 -371 -101q-239 0 -375 103q-65 50 -101 123.5t-36 156.5zM483 1104v342h324v-342h-324z" />
<glyph unicode="&#xc0;" horiz-adv-x="1450" d="M-2 0l537 1446h376l533 -1446h-385l-72 231h-532l-72 -231h-385zM397 1839h377l129 -235h-207zM539 492h366l-188 610q-34 -134 -60 -223q-23 -81 -60.5 -200t-57.5 -187z" />
<glyph unicode="&#xc1;" horiz-adv-x="1450" d="M-2 0l537 1446h376l533 -1446h-385l-72 231h-532l-72 -231h-385zM539 492h366l-188 610q-34 -134 -60 -223q-23 -81 -60.5 -200t-57.5 -187zM551 1602l125 235h368l-296 -235h-197z" />
<glyph unicode="&#xc2;" horiz-adv-x="1450" d="M-2 0l537 1446h376l533 -1446h-385l-72 231h-532l-72 -231h-385zM408 1595l184 236h270l180 -236h-237l-82 105l-78 -105h-237zM539 492h366l-188 610q-34 -134 -60 -223q-23 -81 -60.5 -200t-57.5 -187z" />
<glyph unicode="&#xc3;" horiz-adv-x="1450" d="M-2 0l537 1446h376l533 -1446h-385l-72 231h-532l-72 -231h-385zM375 1585q10 74 26 122t54 83q53 55 133 55q73 0 155 -41q53 -23 75 -32t32.5 -12t26.5 -3q51 0 84 80h139q-13 -126 -51 -182q-62 -80 -146 -80q-65 0 -182 53q-91 43 -131 43q-37 0 -53.5 -26t-22.5 -60 h-139zM539 492h366l-188 610q-34 -134 -60 -223q-23 -81 -60.5 -200t-57.5 -187z" />
<glyph unicode="&#xc4;" horiz-adv-x="1450" d="M-2 0l537 1446h376l533 -1446h-385l-72 231h-532l-72 -231h-385zM326 1595v240h327v-240h-327zM539 492h366l-188 610q-34 -134 -60 -223q-23 -81 -60.5 -200t-57.5 -187zM780 1597v238h330v-238h-330z" />
<glyph unicode="&#xc5;" horiz-adv-x="1450" d="M-2 0l537 1446h376l533 -1446h-385l-72 231h-532l-72 -231h-385zM514 1698q0 55 27.5 100.5t73.5 72.5t100 27t100 -27t73 -73t27 -100t-27 -100t-72.5 -73.5t-100.5 -27.5q-81 0 -142 59q-59 61 -59 142zM539 492h366l-188 610q-34 -134 -60 -223q-23 -81 -60.5 -200 t-57.5 -187zM635 1698q0 -31 22 -58q27 -22 58 -22q33 0 56.5 23.5t23.5 56.5q0 34 -23 57t-57 23q-32 0 -56 -23t-24 -57z" />
<glyph unicode="&#xc6;" horiz-adv-x="2304" d="M-10 0l854 1446h1351v-277h-739v-266h690v-276h-688v-344h807v-283h-1169v350h-506l-195 -350h-405zM735 616h361v646z" />
<glyph unicode="&#xc7;" horiz-adv-x="1409" d="M80 725q0 160 52 301t146 245t223 162t279 58q239 0 422 -143q68 -54 109 -108t80 -124l-287 -143q-48 99 -109 149q-88 72 -198 72q-85 0 -151 -35.5t-113 -100.5t-70 -148.5t-23 -174.5q0 -153 46.5 -259.5t128 -161t182.5 -54.5q123 0 192 60.5t121 154.5l285 -145 q-36 -56 -62.5 -92.5t-63 -75t-93.5 -78.5q-185 -127 -418 -127l-31 -66q63 7 80 7q89 0 122.5 -44t33.5 -90q0 -44 -26.5 -82.5t-71.5 -61.5t-99 -23q-114 0 -203 106l58 47q50 -65 108 -65q32 0 53 18t21 45q0 35 -32.5 58.5t-82.5 23.5q-8 0 -24.5 -2t-30.5 -4l-27 37 l60 104q-164 27 -280 106.5t-182.5 188t-95 229t-28.5 236.5z" />
<glyph unicode="&#xc8;" horiz-adv-x="1323" d="M139 0v1446h1069v-281h-708v-262h661v-274h-661v-344h772v-285h-1133zM334 1839h377l129 -235h-207z" />
<glyph unicode="&#xc9;" horiz-adv-x="1323" d="M139 0v1446h1069v-281h-708v-262h661v-274h-661v-344h772v-285h-1133zM487 1602l125 235h369l-297 -235h-197z" />
<glyph unicode="&#xca;" horiz-adv-x="1323" d="M139 0v1446h1069v-281h-708v-262h661v-274h-661v-344h772v-285h-1133zM344 1595l184 236h271l180 -236h-238l-82 105l-77 -105h-238z" />
<glyph unicode="&#xcb;" horiz-adv-x="1323" d="M139 0v1446h1069v-281h-708v-262h661v-274h-661v-344h772v-285h-1133zM268 1599v240h328v-240h-328zM723 1602v237h330v-237h-330z" />
<glyph unicode="&#xcc;" horiz-adv-x="641" d="M-8 1839h377l129 -235h-207zM137 0v1446h361v-1446h-361z" />
<glyph unicode="&#xcd;" horiz-adv-x="641" d="M137 0v1446h361v-1446h-361zM145 1602l125 235h369l-297 -235h-197z" />
<glyph unicode="&#xce;" horiz-adv-x="641" d="M2 1595l184 236h271l180 -236h-238l-82 105l-77 -105h-238zM137 0v1446h361v-1446h-361z" />
<glyph unicode="&#xcf;" horiz-adv-x="641" d="M-74 1599v240h328v-240h-328zM137 0v1446h361v-1446h-361zM381 1602v237h330v-237h-330z" />
<glyph unicode="&#xd0;" horiz-adv-x="1493" d="M0 698v162h137v586h461q130 -2 226 -11t206.5 -46.5t194.5 -112.5q72 -67 118 -152.5t67.5 -183.5t21.5 -205q0 -153 -37 -278q-47 -157 -134.5 -251.5t-189 -138t-185 -54t-179.5 -13.5h-570v698h-137zM502 291h110q132 2 226.5 26.5t163.5 118t69 287.5q0 91 -15.5 159 t-60.5 130q-45 59 -102.5 87.5t-112.5 35t-133 6.5h-145v-281h356v-162h-356v-407z" />
<glyph unicode="&#xd1;" horiz-adv-x="1493" d="M137 0v1446h355l313 -533q93 -162 217 -395l-16 928h346v-1446h-355l-270 457q-102 170 -142.5 241.5t-111.5 210.5l10 -909h-346zM397 1585q13 81 26.5 124t53.5 81q55 55 133 55q71 0 156 -41q82 -36 97.5 -41.5t35.5 -5.5q54 0 84 80h139q-13 -128 -51 -182 q-59 -80 -145 -80q-65 0 -183 53q-91 43 -131 43q-58 0 -75 -86h-140z" />
<glyph unicode="&#xd2;" horiz-adv-x="1622" d="M86 729q0 148 47 286t137 244.5t225 169t304 62.5q142 0 264 -43q199 -69 303.5 -215.5t136 -285t31.5 -232.5q0 -119 -34.5 -234.5t-96 -209t-143.5 -160.5q-184 -152 -455 -152q-221 0 -384.5 103t-249 280t-85.5 387zM442 735q0 -164 53 -269.5t136 -153.5t174 -48 q66 0 130 24.5t116 76.5t84.5 135.5t35.5 189.5q0 131 -29.5 231t-86.5 162q-48 51 -114 79t-140 28q-108 0 -189 -58.5t-125.5 -162t-44.5 -234.5zM483 1839h377l129 -235h-207z" />
<glyph unicode="&#xd3;" horiz-adv-x="1622" d="M86 729q0 148 47 286t137 244.5t225 169t304 62.5q142 0 264 -43q199 -69 303.5 -215.5t136 -285t31.5 -232.5q0 -119 -34.5 -234.5t-96 -209t-143.5 -160.5q-184 -152 -455 -152q-221 0 -384.5 103t-249 280t-85.5 387zM442 735q0 -164 53 -269.5t136 -153.5t174 -48 q66 0 130 24.5t116 76.5t84.5 135.5t35.5 189.5q0 131 -29.5 231t-86.5 162q-48 51 -114 79t-140 28q-108 0 -189 -58.5t-125.5 -162t-44.5 -234.5zM637 1602l125 235h368l-296 -235h-197z" />
<glyph unicode="&#xd4;" horiz-adv-x="1622" d="M86 729q0 148 47 286t137 244.5t225 169t304 62.5q142 0 264 -43q199 -69 303.5 -215.5t136 -285t31.5 -232.5q0 -119 -34.5 -234.5t-96 -209t-143.5 -160.5q-184 -152 -455 -152q-221 0 -384.5 103t-249 280t-85.5 387zM442 735q0 -164 53 -269.5t136 -153.5t174 -48 q66 0 130 24.5t116 76.5t84.5 135.5t35.5 189.5q0 131 -29.5 231t-86.5 162q-48 51 -114 79t-140 28q-108 0 -189 -58.5t-125.5 -162t-44.5 -234.5zM494 1595l184 236h270l180 -236h-237l-82 105l-78 -105h-237z" />
<glyph unicode="&#xd5;" horiz-adv-x="1622" d="M86 729q0 148 47 286t137 244.5t225 169t304 62.5q142 0 264 -43q199 -69 303.5 -215.5t136 -285t31.5 -232.5q0 -119 -34.5 -234.5t-96 -209t-143.5 -160.5q-184 -152 -455 -152q-221 0 -384.5 103t-249 280t-85.5 387zM442 735q0 -164 53 -269.5t136 -153.5t174 -48 q66 0 130 24.5t116 76.5t84.5 135.5t35.5 189.5q0 131 -29.5 231t-86.5 162q-48 51 -114 79t-140 28q-108 0 -189 -58.5t-125.5 -162t-44.5 -234.5zM461 1585q10 74 26 122t54 83q53 55 133 55q73 0 155 -41q53 -23 75 -32t32.5 -12t26.5 -3q51 0 84 80h139 q-13 -126 -51 -182q-62 -80 -146 -80q-65 0 -182 53q-91 43 -131 43q-37 0 -53.5 -26t-22.5 -60h-139z" />
<glyph unicode="&#xd6;" horiz-adv-x="1622" d="M86 729q0 148 47 286t137 244.5t225 169t304 62.5q142 0 264 -43q199 -69 303.5 -215.5t136 -285t31.5 -232.5q0 -119 -34.5 -234.5t-96 -209t-143.5 -160.5q-184 -152 -455 -152q-221 0 -384.5 103t-249 280t-85.5 387zM420 1595v240h328v-240h-328zM442 735 q0 -164 53 -269.5t136 -153.5t174 -48q66 0 130 24.5t116 76.5t84.5 135.5t35.5 189.5q0 131 -29.5 231t-86.5 162q-48 51 -114 79t-140 28q-108 0 -189 -58.5t-125.5 -162t-44.5 -234.5zM874 1597v238h330v-238h-330z" />
<glyph unicode="&#xd7;" horiz-adv-x="1366" d="M125 225l373 371l-373 375l184 180l373 -369l375 369l182 -180l-371 -375l371 -371l-182 -186l-375 373l-373 -373z" />
<glyph unicode="&#xd8;" horiz-adv-x="1579" d="M-6 111l199 180q-51 90 -83 186.5t-32 249.5q0 71 12.5 151t45.5 166t89 164q65 87 144 146t157.5 88t143.5 38t133 9q153 0 267.5 -51.5t217.5 -151.5l180 164l111 -121l-193 -174q30 -52 54.5 -107t40.5 -135t16 -184q0 -369 -235 -592q-95 -87 -208 -132.5t-270 -45.5 q-111 0 -201 27.5t-154.5 69.5t-133.5 104l-191 -172zM426 731q0 -88 25 -205l600 547q-116 129 -256 129q-84 0 -141 -28t-99 -72q-77 -77 -103 -172.5t-26 -198.5zM532 375q9 -11 15.5 -18t13.5 -15q46 -41 115 -64.5t129 -23.5q67 0 132.5 32.5t114 90.5t77 142.5 t28.5 191.5q0 57 -9 106.5t-22 100.5z" />
<glyph unicode="&#xd9;" horiz-adv-x="1493" d="M127 639v807h365v-901q0 -61 5.5 -105.5t20.5 -74.5q32 -53 95.5 -76t138.5 -23q112 0 166 42.5t66.5 97t14.5 141.5v899h363v-807q-2 -107 -6.5 -161.5t-22.5 -121.5t-55 -127q-69 -110 -179 -169t-203 -76t-157 -17q-82 0 -171 20t-165 58q-98 51 -156 122t-82.5 148 t-31 149.5t-6.5 174.5zM420 1839h377l129 -235h-207z" />
<glyph unicode="&#xda;" horiz-adv-x="1493" d="M127 639v807h365v-901q0 -61 5.5 -105.5t20.5 -74.5q32 -53 95.5 -76t138.5 -23q112 0 166 42.5t66.5 97t14.5 141.5v899h363v-807q-2 -107 -6.5 -161.5t-22.5 -121.5t-55 -127q-69 -110 -179 -169t-203 -76t-157 -17q-82 0 -171 20t-165 58q-98 51 -156 122t-82.5 148 t-31 149.5t-6.5 174.5zM573 1602l125 235h369l-297 -235h-197z" />
<glyph unicode="&#xdb;" horiz-adv-x="1493" d="M127 639v807h365v-901q0 -61 5.5 -105.5t20.5 -74.5q32 -53 95.5 -76t138.5 -23q112 0 166 42.5t66.5 97t14.5 141.5v899h363v-807q-2 -107 -6.5 -161.5t-22.5 -121.5t-55 -127q-69 -110 -179 -169t-203 -76t-157 -17q-82 0 -171 20t-165 58q-98 51 -156 122t-82.5 148 t-31 149.5t-6.5 174.5zM430 1595l184 236h271l180 -236h-238l-82 105l-77 -105h-238z" />
<glyph unicode="&#xdc;" horiz-adv-x="1493" d="M127 639v807h365v-901q0 -61 5.5 -105.5t20.5 -74.5q32 -53 95.5 -76t138.5 -23q112 0 166 42.5t66.5 97t14.5 141.5v899h363v-807q-2 -107 -6.5 -161.5t-22.5 -121.5t-55 -127q-69 -110 -179 -169t-203 -76t-157 -17q-82 0 -171 20t-165 58q-98 51 -156 122t-82.5 148 t-31 149.5t-6.5 174.5zM352 1595v240h328v-240h-328zM807 1597v238h330v-238h-330z" />
<glyph unicode="&#xdd;" horiz-adv-x="1450" d="M4 1446h416l311 -496q22 47 60 109l247 387h412l-547 -762v-684h-356v674zM551 1602l125 235h368l-296 -235h-197z" />
<glyph unicode="&#xde;" horiz-adv-x="1409" d="M137 0v1446h363v-211h219q117 0 192.5 -4t145.5 -20.5t131.5 -54t105.5 -103.5q41 -61 61.5 -138.5t20.5 -158.5q0 -125 -49 -226q-44 -92 -112 -146.5t-144.5 -79t-152 -32.5t-179.5 -10h-239v-262h-363zM500 530h217q61 0 110.5 6t93 27.5t69.5 68.5t26 126 q0 137 -81.5 174t-205.5 37h-229v-439z" />
<glyph unicode="&#xdf;" d="M137 0v961q8 162 33 237q55 165 180.5 222t265.5 57q138 0 231 -37t142.5 -94t69.5 -122t20 -124q0 -62 -17.5 -107t-42.5 -73t-48 -41q-22 -13 -78 -29q8 -1 14.5 -1.5t15 -2t15.5 -2.5q122 -21 177.5 -121.5t55.5 -255.5q0 -81 -17.5 -163t-59.5 -156t-120 -122.5 t-192 -48.5q-29 0 -86 7t-114 28v232q58 -31 104 -31q93 0 135.5 68t42.5 174q0 116 -35 182q-37 71 -87 89.5t-128 18.5h-55v189h51q90 6 134 35t44 127q0 112 -77 151q-33 19 -86 19q-116 0 -158 -101q-10 -27 -14 -72.5t-4 -125.5v-967h-312z" />
<glyph unicode="&#xe0;" horiz-adv-x="1194" d="M90 297q0 116 70.5 194.5t154.5 112.5q87 38 422 98v58q-5 58 -25.5 94.5t-95.5 36.5q-91 0 -123 -37.5t-42 -87.5h-316q6 76 27 131.5t86 106.5q120 94 350 94q160 0 304.5 -63.5t144.5 -243.5v-623q0 -78 6 -108.5t24 -59.5h-309v98q-54 -40 -95.5 -65.5t-99.5 -43.5 t-133 -18q-170 0 -260 99.5t-90 226.5zM266 1475h379l152 -273h-207zM399 311q0 -41 32.5 -74.5t86.5 -33.5t109 35q71 45 89.5 105.5t20.5 168.5l-202 -68q-60 -22 -98 -51t-38 -82z" />
<glyph unicode="&#xe1;" horiz-adv-x="1194" d="M90 297q0 116 70.5 194.5t154.5 112.5q87 38 422 98v58q-5 58 -25.5 94.5t-95.5 36.5q-91 0 -123 -37.5t-42 -87.5h-316q6 76 27 131.5t86 106.5q120 94 350 94q160 0 304.5 -63.5t144.5 -243.5v-623q0 -78 6 -108.5t24 -59.5h-309v98q-54 -40 -95.5 -65.5t-99.5 -43.5 t-133 -18q-170 0 -260 99.5t-90 226.5zM399 311q0 -41 32.5 -74.5t86.5 -33.5t109 35q71 45 89.5 105.5t20.5 168.5l-202 -68q-60 -22 -98 -51t-38 -82zM467 1200l150 273h373l-314 -273h-209z" />
<glyph unicode="&#xe2;" horiz-adv-x="1194" d="M90 297q0 116 70.5 194.5t154.5 112.5q87 38 422 98v58q-5 58 -25.5 94.5t-95.5 36.5q-91 0 -123 -37.5t-42 -87.5h-316q6 76 27 131.5t86 106.5q120 94 350 94q160 0 304.5 -63.5t144.5 -243.5v-623q0 -78 6 -108.5t24 -59.5h-309v98q-54 -40 -95.5 -65.5t-99.5 -43.5 t-133 -18q-170 0 -260 99.5t-90 226.5zM265 1204l206 271h261l210 -269h-241l-101 127l-94 -129h-241zM399 311q0 -41 32.5 -74.5t86.5 -33.5t109 35q71 45 89.5 105.5t20.5 168.5l-202 -68q-60 -22 -98 -51t-38 -82z" />
<glyph unicode="&#xe3;" horiz-adv-x="1194" d="M90 297q0 116 70.5 194.5t154.5 112.5q87 38 422 98v58q-5 58 -25.5 94.5t-95.5 36.5q-91 0 -123 -37.5t-42 -87.5h-316q6 76 27 131.5t86 106.5q120 94 350 94q160 0 304.5 -63.5t144.5 -243.5v-623q0 -78 6 -108.5t24 -59.5h-309v98q-54 -40 -95.5 -65.5t-99.5 -43.5 t-133 -18q-170 0 -260 99.5t-90 226.5zM229 1192q13 141 60.5 216t144.5 75q55 0 127 -31q32 -14 58 -27t46 -20.5t45 -11.5l21 -2q69 0 82 84h141q-11 -88 -25.5 -143t-54 -97.5t-110.5 -42.5q-44 0 -80.5 12.5t-96.5 38.5q-88 43 -131 43t-57.5 -25.5t-22.5 -68.5h-147z M399 311q0 -41 32.5 -74.5t86.5 -33.5t109 35q71 45 89.5 105.5t20.5 168.5l-202 -68q-60 -22 -98 -51t-38 -82z" />
<glyph unicode="&#xe4;" horiz-adv-x="1194" d="M90 297q0 116 70.5 194.5t154.5 112.5q87 38 422 98v58q-5 58 -25.5 94.5t-95.5 36.5q-91 0 -123 -37.5t-42 -87.5h-316q6 76 27 131.5t86 106.5q120 94 350 94q160 0 304.5 -63.5t144.5 -243.5v-623q0 -78 6 -108.5t24 -59.5h-309v98q-54 -40 -95.5 -65.5t-99.5 -43.5 t-133 -18q-170 0 -260 99.5t-90 226.5zM209 1221v254h321v-254h-321zM399 311q0 -41 32.5 -74.5t86.5 -33.5t109 35q71 45 89.5 105.5t20.5 168.5l-202 -68q-60 -22 -98 -51t-38 -82zM723 1221v254h321v-254h-321z" />
<glyph unicode="&#xe5;" horiz-adv-x="1194" d="M90 297q0 116 70.5 194.5t154.5 112.5q87 38 422 98v58q-5 58 -25.5 94.5t-95.5 36.5q-91 0 -123 -37.5t-42 -87.5h-316q6 76 27 131.5t86 106.5q120 94 350 94q160 0 304.5 -63.5t144.5 -243.5v-623q0 -78 6 -108.5t24 -59.5h-309v98q-54 -40 -95.5 -65.5t-99.5 -43.5 t-133 -18q-170 0 -260 99.5t-90 226.5zM399 311q0 -41 32.5 -74.5t86.5 -33.5t109 35q71 45 89.5 105.5t20.5 168.5l-202 -68q-60 -22 -98 -51t-38 -82zM426 1335q0 83 58 142t142 59q53 0 100 -27t74 -74t27 -100q0 -84 -59 -142t-142 -58q-54 0 -100 27t-73 73t-27 100z M545 1335q0 -22 11 -40.5t29.5 -29.5t40.5 -11t41 11t30 29.5t11 40.5q0 34 -23 58t-59 24q-35 0 -58 -24t-23 -58z" />
<glyph unicode="&#xe6;" horiz-adv-x="1792" d="M51 317q0 54 17 105q40 121 131.5 174.5t236.5 77.5q18 3 106.5 15t141.5 20l35 8q0 78 -27 123t-129 45q-91 0 -116.5 -32.5t-30.5 -84.5h-322q8 66 20.5 110t44 87.5t91.5 78.5q102 60 258 60q93 0 160.5 -14.5t116.5 -39t108 -61.5q67 51 141 83t191 32 q136 0 218 -41.5t130 -89.5q74 -71 112 -159t49 -166.5t13 -162.5h-713q4 -56 16.5 -97t51.5 -85q75 -80 170 -80q90 0 141 50.5t92 125.5l244 -123q-30 -50 -51.5 -81t-57.5 -64q-44 -43 -106 -79.5t-134 -56.5t-147 -20q-97 0 -197 36t-188 126q-54 -46 -88 -69 q-68 -46 -160.5 -70.5t-170.5 -24.5q-176 0 -287 97.5t-111 246.5zM362 330q0 -75 46.5 -97t91.5 -22q60 0 105.5 30t72.5 76q25 44 32 94.5t7 118.5q-50 -18 -154 -43q-86 -19 -143.5 -52.5t-57.5 -104.5zM1034 680h387q-17 85 -55 142t-135 57q-75 0 -129.5 -49.5 t-67.5 -149.5z" />
<glyph unicode="&#xe7;" horiz-adv-x="1024" d="M68 526q0 157 61 289t182 208.5t293 76.5q300 0 455 -256l-234 -133q-17 36 -37 63t-53 49q-51 37 -117 37q-114 0 -170.5 -103t-56.5 -220q0 -74 25.5 -149t80 -123t132.5 -48q93 0 157 74q28 30 50 86l235 -125q-42 -68 -97 -127.5t-157.5 -108.5t-245.5 -49l-36 -76 q61 7 79 7q89 0 122.5 -43t33.5 -91q0 -44 -26.5 -83t-71.5 -61.5t-99 -22.5q-110 0 -202 106l57 47q30 -33 52.5 -49t56.5 -16q32 0 52.5 17.5t20.5 45.5q0 35 -31.5 58.5t-80.5 23.5q-14 0 -18 -0.5l-16 -2t-24 -3.5l-24 37l65 119q-147 33 -239 115t-133 192.5t-41 238.5 z" />
<glyph unicode="&#xe8;" horiz-adv-x="1194" d="M66 514q0 106 28 208.5t92.5 189t171.5 139.5t256 53q90 0 193.5 -29t191.5 -125q50 -53 80 -115.5t45.5 -129t20 -116.5t6.5 -118h-764q0 -109 62 -187.5t182 -78.5q114 0 171.5 52.5t98.5 135.5l238 -121q-70 -105 -129 -159q-74 -69 -178.5 -110.5t-225.5 -41.5 q-159 0 -281.5 65.5t-190.5 192t-68 295.5zM202 1475h379l152 -273h-207zM389 668h436q-7 51 -18 86t-41 65q-60 60 -154 60q-95 0 -159 -70q-29 -32 -41.5 -63.5t-22.5 -77.5z" />
<glyph unicode="&#xe9;" horiz-adv-x="1194" d="M66 514q0 106 28 208.5t92.5 189t171.5 139.5t256 53q90 0 193.5 -29t191.5 -125q50 -53 80 -115.5t45.5 -129t20 -116.5t6.5 -118h-764q0 -109 62 -187.5t182 -78.5q114 0 171.5 52.5t98.5 135.5l238 -121q-70 -105 -129 -159q-74 -69 -178.5 -110.5t-225.5 -41.5 q-159 0 -281.5 65.5t-190.5 192t-68 295.5zM389 668h436q-7 51 -18 86t-41 65q-60 60 -154 60q-95 0 -159 -70q-29 -32 -41.5 -63.5t-22.5 -77.5zM467 1200l150 273h373l-314 -273h-209z" />
<glyph unicode="&#xea;" horiz-adv-x="1194" d="M66 514q0 106 28 208.5t92.5 189t171.5 139.5t256 53q90 0 193.5 -29t191.5 -125q50 -53 80 -115.5t45.5 -129t20 -116.5t6.5 -118h-764q0 -109 62 -187.5t182 -78.5q114 0 171.5 52.5t98.5 135.5l238 -121q-70 -105 -129 -159q-74 -69 -178.5 -110.5t-225.5 -41.5 q-159 0 -281.5 65.5t-190.5 192t-68 295.5zM265 1204l206 271h261l210 -269h-241l-101 127l-94 -129h-241zM389 668h436q-7 51 -18 86t-41 65q-60 60 -154 60q-95 0 -159 -70q-29 -32 -41.5 -63.5t-22.5 -77.5z" />
<glyph unicode="&#xeb;" horiz-adv-x="1194" d="M66 514q0 106 28 208.5t92.5 189t171.5 139.5t256 53q90 0 193.5 -29t191.5 -125q50 -53 80 -115.5t45.5 -129t20 -116.5t6.5 -118h-764q0 -109 62 -187.5t182 -78.5q114 0 171.5 52.5t98.5 135.5l238 -121q-70 -105 -129 -159q-74 -69 -178.5 -110.5t-225.5 -41.5 q-159 0 -281.5 65.5t-190.5 192t-68 295.5zM180 1223v254h321v-254h-321zM389 668h436q-7 51 -18 86t-41 65q-60 60 -154 60q-95 0 -159 -70q-29 -32 -41.5 -63.5t-22.5 -77.5zM694 1223v254h321v-254h-321z" />
<glyph unicode="&#xec;" horiz-adv-x="598" d="M-94 1475h379l152 -273h-207zM141 0v1069h312v-1069h-312z" />
<glyph unicode="&#xed;" horiz-adv-x="598" d="M141 0v1069h312v-1069h-312zM170 1200l150 273h373l-314 -273h-209z" />
<glyph unicode="&#xee;" horiz-adv-x="598" d="M-32 1204l206 271h261l210 -269h-241l-101 127l-94 -129h-241zM141 0v1069h312v-1069h-312z" />
<glyph unicode="&#xef;" horiz-adv-x="598" d="M-116 1223v254h321v-254h-321zM141 0v1069h312v-1069h-312zM398 1223v254h321v-254h-321z" />
<glyph unicode="&#xf0;" horiz-adv-x="1280" d="M63 532q0 139 44.5 247.5t120 180.5t166.5 107t186 35q89 0 138 -27.5t95 -70.5q-28 56 -55 101.5t-80 113.5l-322 -89l-37 105l279 76q-41 41 -84 82l246 96q59 -59 102 -107l189 52l45 -101l-156 -43q118 -152 196 -332t78 -411q0 -112 -31 -214t-99.5 -185 t-180.5 -132t-264 -49q-187 0 -317 76.5t-194.5 206.5t-64.5 282zM381 539q0 -89 30 -162.5t88 -116.5t138 -43q126 0 192 86.5t66 222.5q0 182 -90 267q-40 37 -85.5 48t-98.5 11q-127 -9 -187 -104q-53 -85 -53 -209z" />
<glyph unicode="&#xf1;" d="M143 0v1067h318v-94q33 35 51.5 51t54.5 33q96 39 195 39q111 0 190 -43q55 -29 86 -71.5t43.5 -101.5t12.5 -149v-731h-314v602q0 126 -14 160q-17 41 -54 61.5t-87 20.5q-76 0 -113 -36t-45 -89t-8 -141v-578h-316zM252 1192q13 141 60.5 216t144.5 75q55 0 127 -31 q32 -14 58 -27t46 -20.5t45 -11.5l21 -2q69 0 82 84h141q-11 -88 -25.5 -143t-54 -97.5t-110.5 -42.5q-44 0 -80.5 12.5t-96.5 38.5q-88 43 -131 43t-57.5 -25.5t-22.5 -68.5h-147z" />
<glyph unicode="&#xf2;" horiz-adv-x="1280" d="M66 537q0 120 36.5 223.5t108 180t179.5 120t243 43.5q16 0 26.5 -0.5t22.5 -1.5q155 -9 260.5 -67t165.5 -145.5t83 -177.5t23 -175q0 -145 -59 -275t-188 -211.5t-326 -81.5q-157 0 -287.5 61t-209 189t-78.5 318zM243 1475h379l152 -273h-207zM383 539 q0 -89 28.5 -161t87 -115.5t142.5 -43.5q123 0 188.5 86.5t65.5 218.5q0 182 -88 269q-41 37 -86.5 48t-97.5 11q-68 -5 -111 -29.5t-76 -74.5q-53 -84 -53 -209z" />
<glyph unicode="&#xf3;" horiz-adv-x="1280" d="M66 537q0 120 36.5 223.5t108 180t179.5 120t243 43.5q16 0 26.5 -0.5t22.5 -1.5q155 -9 260.5 -67t165.5 -145.5t83 -177.5t23 -175q0 -145 -59 -275t-188 -211.5t-326 -81.5q-157 0 -287.5 61t-209 189t-78.5 318zM383 539q0 -89 28.5 -161t87 -115.5t142.5 -43.5 q123 0 188.5 86.5t65.5 218.5q0 182 -88 269q-41 37 -86.5 48t-97.5 11q-68 -5 -111 -29.5t-76 -74.5q-53 -84 -53 -209zM508 1200l150 273h373l-314 -273h-209z" />
<glyph unicode="&#xf4;" horiz-adv-x="1280" d="M66 537q0 120 36.5 223.5t108 180t179.5 120t243 43.5q16 0 26.5 -0.5t22.5 -1.5q155 -9 260.5 -67t165.5 -145.5t83 -177.5t23 -175q0 -145 -59 -275t-188 -211.5t-326 -81.5q-157 0 -287.5 61t-209 189t-78.5 318zM306 1204l206 271h261l210 -269h-241l-101 127 l-94 -129h-241zM383 539q0 -89 28.5 -161t87 -115.5t142.5 -43.5q123 0 188.5 86.5t65.5 218.5q0 182 -88 269q-41 37 -86.5 48t-97.5 11q-68 -5 -111 -29.5t-76 -74.5q-53 -84 -53 -209z" />
<glyph unicode="&#xf5;" horiz-adv-x="1280" d="M66 537q0 120 36.5 223.5t108 180t179.5 120t243 43.5q16 0 26.5 -0.5t22.5 -1.5q155 -9 260.5 -67t165.5 -145.5t83 -177.5t23 -175q0 -145 -59 -275t-188 -211.5t-326 -81.5q-157 0 -287.5 61t-209 189t-78.5 318zM270 1192q13 141 60.5 216t144.5 75q55 0 127 -31 q32 -14 58 -27t46 -20.5t45 -11.5l21 -2q69 0 82 84h141q-11 -88 -25.5 -143t-54 -97.5t-110.5 -42.5q-44 0 -80.5 12.5t-96.5 38.5q-88 43 -131 43t-57.5 -25.5t-22.5 -68.5h-147zM383 539q0 -89 28.5 -161t87 -115.5t142.5 -43.5q123 0 188.5 86.5t65.5 218.5 q0 182 -88 269q-41 37 -86.5 48t-97.5 11q-68 -5 -111 -29.5t-76 -74.5q-53 -84 -53 -209z" />
<glyph unicode="&#xf6;" horiz-adv-x="1280" d="M66 537q0 120 36.5 223.5t108 180t179.5 120t243 43.5q16 0 26.5 -0.5t22.5 -1.5q155 -9 260.5 -67t165.5 -145.5t83 -177.5t23 -175q0 -145 -59 -275t-188 -211.5t-326 -81.5q-157 0 -287.5 61t-209 189t-78.5 318zM228 1219v254h321v-254h-321zM383 539 q0 -89 28.5 -161t87 -115.5t142.5 -43.5q123 0 188.5 86.5t65.5 218.5q0 182 -88 269q-41 37 -86.5 48t-97.5 11q-68 -5 -111 -29.5t-76 -74.5q-53 -84 -53 -209zM742 1219v254h321v-254h-321z" />
<glyph unicode="&#xf7;" horiz-adv-x="1366" d="M2 465v260h1364v-260h-1364zM518 229q0 66 48 115t116 49t116 -48t48 -116q0 -69 -48 -116t-116 -47t-116 48t-48 115zM518 961q0 67 48 115t116 48t116 -47t48 -116q0 -68 -48 -116t-116 -48t-116 49t-48 115z" />
<glyph unicode="&#xf8;" horiz-adv-x="1280" d="M23 61l153 142q-23 31 -48 77t-42.5 112t-17.5 153q0 117 36 217t107 177t176.5 120t237.5 43q224 0 391 -133l153 139l82 -94l-151 -137q47 -70 79.5 -150t32.5 -201q0 -168 -75 -293.5t-205 -193.5t-293 -68q-140 0 -223 39t-156 101l-156 -144zM373 539q0 -35 2.5 -59 t6 -39.5t9.5 -41.5l426 389q-35 33 -75.5 53.5t-106.5 20.5q-57 0 -117 -26.5t-102.5 -99t-42.5 -197.5zM459 289q40 -38 75.5 -57t106.5 -19q131 0 195.5 93t64.5 239q0 52 -18 133z" />
<glyph unicode="&#xf9;" d="M131 397v672h318v-663q0 -48 4 -77t20 -50q41 -54 125 -54q61 0 109 27q45 28 57 61.5t14 89.5v666h316v-1069h-316v102q-48 -55 -106 -84q-98 -49 -203 -49q-191 0 -272 113q-40 56 -53 120.5t-13 194.5zM225 1475h379l152 -273h-207z" />
<glyph unicode="&#xfa;" d="M131 397v672h318v-663q0 -48 4 -77t20 -50q41 -54 125 -54q61 0 109 27q45 28 57 61.5t14 89.5v666h316v-1069h-316v102q-48 -55 -106 -84q-98 -49 -203 -49q-191 0 -272 113q-40 56 -53 120.5t-13 194.5zM489 1200l150 273h373l-314 -273h-209z" />
<glyph unicode="&#xfb;" d="M131 397v672h318v-663q0 -48 4 -77t20 -50q41 -54 125 -54q61 0 109 27q45 28 57 61.5t14 89.5v666h316v-1069h-316v102q-48 -55 -106 -84q-98 -49 -203 -49q-191 0 -272 113q-40 56 -53 120.5t-13 194.5zM287 1204l206 271h261l210 -269h-241l-101 127l-94 -129h-241z " />
<glyph unicode="&#xfc;" d="M131 397v672h318v-663q0 -48 4 -77t20 -50q41 -54 125 -54q61 0 109 27q45 28 57 61.5t14 89.5v666h316v-1069h-316v102q-48 -55 -106 -84q-98 -49 -203 -49q-191 0 -272 113q-40 56 -53 120.5t-13 194.5zM199 1223v254h321v-254h-321zM713 1223v254h321v-254h-321z" />
<glyph unicode="&#xfd;" horiz-adv-x="1024" d="M0 1069h336l176 -766l176 766h336l-377 -1155q-46 -134 -100 -195q-50 -53 -101 -68.5t-127 -17.5h-227v250h111q59 2 95 15.5t36 62.5q0 27 -15 76zM383 1200l150 273h373l-314 -273h-209z" />
<glyph unicode="&#xfe;" d="M131 -371v1817h281v-481q10 12 32 34q41 41 113 68t154 27q131 0 237.5 -65t167 -190.5t60.5 -299.5q0 -92 -21.5 -186.5t-75.5 -180.5t-145.5 -139t-220.5 -53q-58 0 -101 11.5t-72.5 26.5t-90.5 52v-441h-318zM434 532q0 -94 21 -159.5t55 -104.5q31 -31 67 -46t74 -15 q74 0 123.5 46.5t73.5 122.5t24 165q0 75 -14.5 141t-52 115.5t-100.5 66.5q-22 6 -43 6q-47 0 -88.5 -21t-73.5 -65q-66 -89 -66 -252z" />
<glyph unicode="&#xff;" horiz-adv-x="1024" d="M0 1069h336l176 -766l176 766h336l-377 -1155q-46 -134 -100 -195q-50 -53 -101 -68.5t-127 -17.5h-227v250h111q59 2 95 15.5t36 62.5q0 27 -15 76zM97 1223v254h321v-254h-321zM611 1223v254h321v-254h-321z" />
<glyph unicode="&#x152;" horiz-adv-x="2261" d="M86 725q0 172 51.5 326.5t171.5 265.5q47 46 105.5 78.5t115.5 50.5t112 26.5t106 8.5q104 0 169.5 -19t139.5 -55v39h1089v-283h-729v-264h686v-281h-686v-331h799v-287h-1163v31q-89 -31 -154 -45.5t-162 -14.5q-127 0 -244 46t-209 140t-145 237.5t-53 330.5zM451 727 q0 -156 47 -264q24 -58 69 -107t108 -77.5t144 -28.5q66 0 116.5 16.5t121.5 50.5v813q-48 33 -98.5 52.5t-133.5 19.5q-139 0 -233 -80q-141 -120 -141 -395z" />
<glyph unicode="&#x153;" horiz-adv-x="1921" d="M66 535q0 176 69.5 304t190.5 193.5t272 65.5q134 0 217 -40.5t152 -103.5q157 144 387 144q178 0 303 -92q92 -66 141.5 -163t63.5 -180t22 -194h-764q12 -89 47 -145q71 -107 211 -107q83 0 136 30t79 69t41 77l244 -125q-34 -56 -61.5 -94.5t-67.5 -73.5 q-90 -77 -197.5 -104t-185.5 -27q-51 0 -117 13t-139 49q-32 15 -53.5 29t-40.5 29.5t-45 39.5q-42 -40 -65.5 -58.5t-65.5 -37.5q-120 -60 -254 -60q-129 0 -254.5 63.5t-196.5 190.5q-33 62 -51 139t-18 169zM377 539q0 -119 31 -185q27 -63 80 -97t120 -34 q96 0 154.5 85.5t58.5 228.5q0 51 -9 112t-36 109q-55 98 -180 98q-58 -1 -95.5 -24.5t-66.5 -69.5q-57 -90 -57 -223zM1124 664h435q-12 93 -68.5 145.5t-153.5 52.5q-102 0 -151.5 -60.5t-61.5 -137.5z" />
<glyph unicode="&#x178;" horiz-adv-x="1450" d="M4 1446h416l311 -496q22 47 60 109l247 387h412l-547 -762v-684h-356v674zM332 1599v240h327v-240h-327zM786 1602v237h330v-237h-330z" />
<glyph unicode="&#x2c6;" horiz-adv-x="555" d="M-61 1204l206 271h261l210 -269h-241l-101 127l-94 -129h-241z" />
<glyph unicode="&#x2dc;" horiz-adv-x="555" d="M-84 1192q13 141 60.5 216t144.5 75q55 0 127 -31q32 -14 58 -27t46 -20.5t45 -11.5l21 -2q69 0 82 84h141q-11 -88 -25.5 -143t-54 -97.5t-110.5 -42.5q-44 0 -80.5 12.5t-96.5 38.5q-88 43 -131 43t-57.5 -25.5t-22.5 -68.5h-147z" />
<glyph unicode="&#x2000;" horiz-adv-x="949" />
<glyph unicode="&#x2001;" horiz-adv-x="1898" />
<glyph unicode="&#x2002;" horiz-adv-x="949" />
<glyph unicode="&#x2003;" horiz-adv-x="1898" />
<glyph unicode="&#x2004;" horiz-adv-x="632" />
<glyph unicode="&#x2005;" horiz-adv-x="474" />
<glyph unicode="&#x2006;" horiz-adv-x="316" />
<glyph unicode="&#x2007;" horiz-adv-x="316" />
<glyph unicode="&#x2008;" horiz-adv-x="237" />
<glyph unicode="&#x2009;" horiz-adv-x="379" />
<glyph unicode="&#x200a;" horiz-adv-x="105" />
<glyph unicode="&#x2010;" horiz-adv-x="725" d="M106 457v293h508v-293h-508z" />
<glyph unicode="&#x2011;" horiz-adv-x="725" d="M106 457v293h508v-293h-508z" />
<glyph unicode="&#x2012;" horiz-adv-x="725" d="M106 457v293h508v-293h-508z" />
<glyph unicode="&#x2013;" horiz-adv-x="1151" d="M106 453v292h936v-292h-936z" />
<glyph unicode="&#x2014;" d="M106 453v292h1020v-292h-1020z" />
<glyph unicode="&#x2018;" horiz-adv-x="512" d="M94 762v319q4 74 16 121.5t50 100.5q57 81 124.5 112.5t135.5 42.5v-141q-45 -19 -70.5 -45t-38 -64t-18.5 -102h127v-344h-326z" />
<glyph unicode="&#x2019;" horiz-adv-x="512" d="M92 754v145q72 23 100 67t31 144h-131v336h326v-295q-7 -175 -86 -274q-33 -38 -91.5 -75.5t-148.5 -47.5z" />
<glyph unicode="&#x201a;" horiz-adv-x="512" d="M92 0v344h328v-262q-2 -87 -9 -139t-32 -101q-46 -87 -116.5 -127.5t-168.5 -68.5v145q69 27 92.5 73.5t30.5 135.5h-125z" />
<glyph unicode="&#x201c;" horiz-adv-x="981" d="M94 760v305q3 170 86 272q92 106 238 123v-145q-70 -21 -99 -67t-30 -146h129v-342h-324zM565 760v303q3 172 86 274q92 106 238 123v-145q-70 -21 -99 -67t-30 -146h129v-342h-324z" />
<glyph unicode="&#x201d;" horiz-adv-x="981" d="M94 748v145q72 23 99.5 67.5t29.5 143.5h-129v342h324v-303q-3 -174 -86 -273q-31 -38 -91.5 -75.5t-146.5 -46.5zM565 748v145q72 23 99.5 67.5t29.5 143.5h-129v342h324v-303q-3 -174 -86 -273q-31 -38 -91.5 -75.5t-146.5 -46.5z" />
<glyph unicode="&#x201e;" horiz-adv-x="981" d="M94 0v342h324v-303q-3 -174 -86 -272q-32 -40 -92 -77t-146 -46v143q71 25 99.5 69.5t29.5 143.5h-129zM565 0v342h324v-303q-3 -174 -86 -272q-32 -40 -92 -77t-146 -46v143q71 25 99.5 69.5t29.5 143.5h-129z" />
<glyph unicode="&#x2022;" horiz-adv-x="682" d="M25 721q0 85 42.5 158.5t116 116t158.5 42.5t158.5 -42.5t116 -116t42.5 -158.5t-42 -158.5t-116 -116.5t-159 -43t-159 43t-116 116.5t-42 158.5z" />
<glyph unicode="&#x2026;" horiz-adv-x="2048" d="M178 0v342h324v-342h-324zM862 0v342h324v-342h-324zM1546 0v342h324v-342h-324z" />
<glyph unicode="&#x202f;" horiz-adv-x="379" />
<glyph unicode="&#x2039;" horiz-adv-x="469" d="M66 471v256l323 274v-282l-137 -117l139 -117v-280z" />
<glyph unicode="&#x203a;" horiz-adv-x="469" d="M74 197v282l131 119l-131 117v278l325 -268v-252z" />
<glyph unicode="&#x205f;" horiz-adv-x="474" />
<glyph unicode="&#x2122;" horiz-adv-x="1407" d="M0 1309v137h588v-137h-207v-543h-172v543h-209zM643 766v680h217l156 -492l145 492h219v-680h-168l9 362q0 58 12 140q-18 -75 -29 -111l-114 -391h-154l-121 393l-29 105q12 -77 15 -136l8 -362h-166z" />
<glyph unicode="&#x25fc;" horiz-adv-x="1070" d="M0 0v1070h1070v-1070h-1070z" />
</font>
</defs>
</svg>
